<svg xmlns="http://www.w3.org/2000/svg" viewBox="0 0 41.13 29.24"><defs><style>.cls-1{fill:#4d4d4d;}</style></defs><title>Ресурс 3</title><g id="Слой_2" data-name="Слой 2"><g id="Слой_1-2" data-name="Слой 1"><g id="Контакты"><g id="block"><g id="_1" data-name=" 1"><g id="mail"><g id="Group_48" data-name="Group 48"><path id="Path_18" data-name="Path 18" class="cls-1" d="M33.3,22.59a.66.66,0,0,1-.45-.18l-7.63-7.16a.66.66,0,1,1,.87-1l0,0,7.63,7.15a.66.66,0,0,1-.46,1.15Z"/><path id="Path_19" data-name="Path 19" class="cls-1" d="M7.83,22.59a.66.66,0,0,1-.45-1.15L15,14.28a.66.66,0,1,1,.95.93l0,0L8.28,22.4A.66.66,0,0,1,7.83,22.59Z"/></g><path id="Path_20" data-name="Path 20" class="cls-1" d="M37.81,29.24H3.32A3.32,3.32,0,0,1,0,25.92V3.32A3.32,3.32,0,0,1,3.32,0h34.5a3.32,3.32,0,0,1,3.31,3.32v22.6A3.32,3.32,0,0,1,37.81,29.24ZM3.32,1.33a2,2,0,0,0-2,2v22.6a2,2,0,0,0,2,2h34.5a2,2,0,0,0,2-2V3.32a2,2,0,0,0-2-2Z"/><path id="Path_21" data-name="Path 21" class="cls-1" d="M20.56,18a3.71,3.71,0,0,1-2.43-.88L1.1,2.22a.66.66,0,0,1,.87-1L19,16.07a2.48,2.48,0,0,0,3.13,0l17-14.83a.66.66,0,0,1,.9,1l0,0L23,17.07A3.7,3.7,0,0,1,20.56,18Z"/></g></g></g></g></g></g></svg>