<svg xmlns="http://www.w3.org/2000/svg" viewBox="0 0 21.19 34.21"><defs><style>.cls-1{fill:#4a4a4d;}</style></defs><title>Ресурс 1</title><g id="Слой_2" data-name="Слой 2"><g id="Слой_1-2" data-name="Слой 1"><g id="Контакты"><g id="block"><g id="_1" data-name=" 1"><path class="cls-1" d="M14.67,34c-1.34.54-1.8-.57-2.37-1.27a45.93,45.93,0,0,1-5.23-8.24A67.59,67.59,0,0,1,2.61,13.86c-.93-3-1.73-6-2.53-9.06A1.76,1.76,0,0,1,.61,2.91,15.2,15.2,0,0,1,4.2.26,2.74,2.74,0,0,1,5.33,0,16.78,16.78,0,0,1,7.17.13,1,1,0,0,1,8,.86c.67,2,1.39,3.95,2.06,5.93a1,1,0,0,1-.1.78c-.62,1-1.32,2-1.93,3a3.4,3.4,0,0,0-.4,1.29A11,11,0,0,0,9,18c.49,1,1,2.07,1.59,3.09a4.79,4.79,0,0,0,3.89,2.46c.91.11,1.81.29,2.73.39.56.06.74.5,1,.88,1,1.78,1.92,3.59,2.9,5.37a.59.59,0,0,1,0,.76,18.2,18.2,0,0,1-1.44,1.79,3.32,3.32,0,0,1-1.42.75c-1.16.3-2.35.5-3.52.74Z"/></g></g></g></g></g></svg>