<svg xmlns="http://www.w3.org/2000/svg" viewBox="0 0 13.26 21.35"><defs><style>.cls-1{fill:#fff;}</style></defs><title>Ресурс 1</title><g id="Слой_2" data-name="Слой 2"><g id="Слой_1-2" data-name="Слой 1"><g id="Главная"><g id="подвал"><g id="Слой_2-2" data-name="Слой 2"><g id="Слой_1-2-2" data-name="Слой 1-2"><g id="Контакты"><g id="block"><g id="_1" data-name=" 1"><path class="cls-1" d="M9.16,21.21c-.84.34-1.12-.36-1.48-.79a28.65,28.65,0,0,1-3.26-5.14A42.17,42.17,0,0,1,1.63,8.64C1.05,6.77.55,4.9.06,3A1.1,1.1,0,0,1,.39,1.82,9.48,9.48,0,0,1,2.62.16,1.71,1.71,0,0,1,3.33,0,10.46,10.46,0,0,1,4.48.08.62.62,0,0,1,5,.54c.42,1.25.87,2.46,1.28,3.7a.62.62,0,0,1-.06.49C5.83,5.35,5.39,6,5,6.59a2.12,2.12,0,0,0-.25.8,6.86,6.86,0,0,0,.85,3.83c.31.62.62,1.29,1,1.93A3,3,0,0,0,9,14.69c.57.07,1.13.18,1.7.24.35,0,.46.31.62.55.62,1.11,1.2,2.24,1.81,3.35a.37.37,0,0,1,0,.47,11.37,11.37,0,0,1-.9,1.12,2.07,2.07,0,0,1-.89.47c-.72.19-1.47.31-2.2.46Z"/></g></g></g></g></g></g></g></g></g></svg>