<svg xmlns="http://www.w3.org/2000/svg" viewBox="0 0 76 76"><defs><style>.cls-1{fill:#60bf70;}.cls-2{fill:#fff;}</style></defs><title>Ресурс 5</title><g id="Слой_2" data-name="Слой 2"><g id="Слой_1-2" data-name="Слой 1"><g id="Главная"><g id="Group_34" data-name="Group 34"><circle id="Ellipse_5" data-name="Ellipse 5" class="cls-1" cx="38" cy="38" r="38"/><path id="Rectangle_29" data-name="Rectangle 29" class="cls-2" d="M60.41,48.3,37.85,25.74a1.47,1.47,0,0,1,0-2.08h0a1.47,1.47,0,0,1,2.08,0L62.49,46.21a1.47,1.47,0,0,1,0,2.08h0A1.47,1.47,0,0,1,60.41,48.3Z"/><path id="Rectangle_30" data-name="Rectangle 30" class="cls-2" d="M39.51,25.74,16.95,48.3a1.47,1.47,0,0,1-2.08,0h0a1.47,1.47,0,0,1,0-2.08L37.43,23.65a1.47,1.47,0,0,1,2.08,0h0A1.47,1.47,0,0,1,39.51,25.74Z"/></g></g></g></g></svg>