<svg xmlns="http://www.w3.org/2000/svg" viewBox="0 0 57.5 32.8"><defs><style>.cls-1{fill:#fff;}</style></defs><title>Ресурс 7</title><g id="Слой_2" data-name="Слой 2"><g id="Слой_1-2" data-name="Слой 1"><g id="Главная"><g id="подвал"><g id="vk-social-network-logo-3"><path id="Path_3" data-name="Path 3" class="cls-1" d="M57.2,29.62a3.92,3.92,0,0,0-.2-.38,29.8,29.8,0,0,0-5.72-6.62l-.06-.06,0,0,0,0h0q-1.92-1.83-2.42-2.45a2.3,2.3,0,0,1-.42-2.43A22.6,22.6,0,0,1,51,13.71q1.23-1.59,1.95-2.54,5.18-6.89,4.49-8.8l-.18-.3a1.75,1.75,0,0,0-.93-.49A4.71,4.71,0,0,0,54.4,1.5l-8.62.06a1.12,1.12,0,0,0-.6,0l-.39.09-.15.07-.12.09a1.33,1.33,0,0,0-.33.31,2.06,2.06,0,0,0-.3.52,48.88,48.88,0,0,1-3.2,6.74q-1.11,1.86-2,3.22a15.48,15.48,0,0,1-1.56,2,10.84,10.84,0,0,1-1.14,1q-.51.39-.78.33l-.51-.12a2,2,0,0,1-.67-.73A3.29,3.29,0,0,1,33.65,14a11.8,11.8,0,0,1-.1-1.21q0-.51,0-1.44t0-1.26q0-1.14,0-2.47t.07-2.11q0-.78,0-1.65a6.91,6.91,0,0,0-.1-1.36,4.66,4.66,0,0,0-.31-1,1.61,1.61,0,0,0-.61-.72,3.46,3.46,0,0,0-1-.4,19.92,19.92,0,0,0-4-.39q-5.57-.06-7.15.72a4,4,0,0,0-1.14.9q-.54.66-.15.72a3.67,3.67,0,0,1,2.54,1.29L22,4a5.73,5.73,0,0,1,.42,1.38,13.89,13.89,0,0,1,.27,2.18,23.31,23.31,0,0,1,0,3.74q-.15,1.56-.28,2.42a4.85,4.85,0,0,1-.4,1.41,5.92,5.92,0,0,1-.36.66.51.51,0,0,1-.15.15,2.24,2.24,0,0,1-.81.15,1.9,1.9,0,0,1-1-.42,7.19,7.19,0,0,1-1.24-1.15,15.41,15.41,0,0,1-1.45-2.05q-.81-1.32-1.68-3.11l-.48-.87Q14.33,7.64,13.55,6t-1.38-3.1a2,2,0,0,0-.72-1l-.15-.09a2.05,2.05,0,0,0-.48-.25,3.18,3.18,0,0,0-.69-.19l-8.2.06a2.09,2.09,0,0,0-1.71.57l-.14.17A1,1,0,0,0,0,2.73a2.38,2.38,0,0,0,.18.81Q2,7.76,4.09,11.68T7.76,18q1.56,2.4,3.17,4.52t2.14,2.72q.52.6.82.9l.75.72a17.76,17.76,0,0,0,2.11,1.72,36,36,0,0,0,3.08,2,16.73,16.73,0,0,0,3.94,1.59,13.61,13.61,0,0,0,4.37.49h3.44A2.38,2.38,0,0,0,33.17,32l.12-.15a2,2,0,0,0,.22-.55,3,3,0,0,0,.1-.82,9.87,9.87,0,0,1,.19-2.32,6.1,6.1,0,0,1,.51-1.56,3.82,3.82,0,0,1,.64-.88,2.6,2.6,0,0,1,.51-.43l.24-.1a1.9,1.9,0,0,1,1.69.46,9.94,9.94,0,0,1,1.83,1.74q.85,1,2.05,2.32a14.08,14.08,0,0,0,2.1,1.92L44,32a7.28,7.28,0,0,0,1.56.66,3.35,3.35,0,0,0,1.68.15l7.66-.12a3.47,3.47,0,0,0,1.77-.37,1.48,1.48,0,0,0,.75-.82,2.32,2.32,0,0,0,0-1A3.75,3.75,0,0,0,57.2,29.62Z"/></g></g></g></g></g></svg>